<svg xmlns="http://www.w3.org/2000/svg" version="1.1" viewBox="0 0 1600 1200" width="1600" height="1200">
<rect fill="rgb(255,255,255)" x="0" y="0" width="1600" height="1200"/><defs/><!--ITEM: Illustration component 1--><g transform="translate(1600.0 -65.0) rotate(0.0 -810.0 810.0)  scale(-20.19573658027587 20.19573658027587)"><svg width="80.21495" height="80.21495" viewBox="0.0 0.0 80.21495 80.21495"><title>square_beige</title>
  <g id="&#1057;&#1083;&#1086;&#1081;_2-i1" data-name="&#1057;&#1083;&#1086;&#1081; 2">
    <g id="&#1057;&#1083;&#1086;&#1081;_2-2-i1" data-name="&#1057;&#1083;&#1086;&#1081; 2">
      <rect width="80.21495" height="80.21495" style="fill:rgb(239,234,216);"/>
    </g>
  </g>
</svg></g><!--ITEM: Illustration component 2--><g transform="translate(402.0 279.0) rotate(0.0 417.0 460.5)  scale(2.8392262597789895 2.8357570178058444)"><svg width="293.742" height="324.781" viewBox="0.0 0.0 293.742 324.781"><path d="m287.001 4.291c-29 .84-58.06.44-87.06.47-31.193 0-62.39-.087-93.59-.26-31.84-.21-63.73-1.21-95.57-.98-4.12 0-5.49 1.82-5.59 5.84-.22 8.63-.1 17.27-.14 25.9-.087 15.273-.17 30.55-.25 45.83l-.3 53.8c-.047 8.667-.093 17.3-.14 25.9 0 7-.5 14.16.24 21.15.032 1.367 1.133 2.468 2.5 2.5 71.333 1.04 142.667 1.46 214 1.26 20.247-.06 40.49-.17 60.73-.33.796.039 1.554-.34 2-1 1.18 1.72 4.58 1.26 4.59-1.39.36-58.72.72-117.44 1.08-176.16 0-1.386-1.114-2.514-2.5-2.53z" fill="rgb(220,215,201)"/><path d="m293.341 5.631c-1.44-4.83-7.24-5.66-11.32-5.63-59.26.453-118.49.697-177.69.73-16.667 0-33.303 0-49.91 0-15.41 0-31.08-.89-46.45.06-2.737.058-4.942 2.263-5 5l-1.53 94.9c-.253 15.813-.51 31.63-.77 47.45-.2 12.2-1.57 25 .3 37 .33 2.13 2.81 3.67 4.82 3.67l201.51-.37 80.881.019c6.43 0 6.117-9.667-.333-9.667l-224.198-.092-53.41.1c-.19-3.62 0-7.25.11-10.93.12-7.58.243-15.16.37-22.74.253-15.487.503-30.973.75-46.46.473-29.387.947-58.773 1.42-88.16 14.78-.59 29.77.16 44.53.18h55.9c36.6 0 73.203-.113 109.81-.34 20.133-.107 40.263-.237 60.39-.39-.067 49.873-.105 123.459-.172 173.332 0 6.43 10.167 6.94 10.167.5.04-29.74-.115-83.689-.075-113.422l.06-44.61c0-3.633 0-7.267 0-10.9.01-2.78.63-6.48-.16-9.23z" fill="#3b301b"/><g fill="#e5a024"><path d="m24.751 43.791 244-1.61c2.41 0 2.42-3.77 0-3.75l-244 1.61c-2.41 0-2.42 3.77 0 3.75z"/><path d="m25.001 81.791 244-1.61c2.41 0 2.42-3.77 0-3.75l-244 1.61c-2.41 0-2.42 3.77 0 3.75z"/><path d="m25.501 157.791 244-1.61c2.41 0 2.42-3.77 0-3.75l-244 1.61c-2.41 0-2.42 3.77 0 3.75z"/><path d="m25.251 119.791 244-1.61c2.41 0 2.42-3.77 0-3.75l-244 1.61c-2.41 0-2.42 3.77 0 3.75z"/></g><path d="m157.841 314.781h-6v-129c0-6.43-10-6.45-10 0v129h-6c-6.43 0-6.45 10 0 10h22c6.43 0 6.44-10 0-10z" fill="#3b301b"/></svg>

</g><!--ITEM: Illustration component 3--><g transform="translate(230.0 112.0) rotate(0.0 214.0 300.0)  scale(1.6936593627606649 1.6897049012059113)"><svg width="252.70725" height="355.09159" viewBox="0.0 0.0 252.70725 355.09159"><path d="m33.95341 209.83865c20.99865 25.69341 51.01268 37.543 84.30442 36.20935.03384-.00136.146-.00641.3203-.01485-1.22836 4.79177-2.2245 8.96073-2.82833 11.52487-4.07709 17.31585-2.88075 36.00461 12.22551 47.98608 22.40559 17.77074 44.4117 1.05391 68.26384-.02167 5.17545-.23338 9.21476.64973 17.28287 1.88456a36.50276 36.50276 0 0 1 9.20062 2.58792c1.56037.70595 3.30983 1.65492 3.30983 1.65492a34.58394 34.58394 0 0 1 4.13729 2.48237 36.30548 36.30548 0 0 1 10.757 11.99814c1.27937 13.51649 3.30034 28.89238 6.20593 28.961 2.15481.05091 4.2082-8.33135 4.96475-13.23933 3.6174-23.4683-8.94658-54.89083-35.32008-69.82249a69.14286 69.14286 0 0 0 -30.93542-8.71629c10.81988-13.26144 19.93656-28.54037 21.32764-45.39694 2.39813-29.06087-16.769-50.2171-43.13871-58.80626-3.33336-1.08574-13.58608-4.2082-23.16144-7.0243a19.91761 19.91761 0 0 1 -13.35275-25.16208c1.7535-5.49721 3.40538-10.6842 4.12153-13.41063 12.06748-45.9378 11.48729-100.50031-47.58821-111.70902-113.63144-21.56-92.43269 156.23314-50.09659 208.03465zm94.76587 5.3209a6.81935 6.81935 0 0 1 1.00937-1.51639 11.97687 11.97687 0 0 0 -1.00937 1.51639z" fill="#3a301b"/><ellipse cx="67.76085" cy="65.5572" fill="rgb(220,215,201)" rx="50.27356" ry="54.17073" transform="matrix(.03340201 -.999442 .999442 .03340201 -.02312 131.0905)"/><circle cx="105.24691" cy="104.82868" fill="rgb(220,215,201)" r="15.00412"/><ellipse cx="30.55352" cy="105.45186" fill="rgb(220,215,201)" rx="13.44525" ry="14.41955" transform="matrix(.03340201 -.999442 .999442 .03340201 -75.86005 132.46603)"/><path d="m84.95119 134.5967a3.73385 3.73385 0 0 0 3.853-3.5485l1.22268-24.91507a3.73383 3.73383 0 1 0 -7.45868-.366l-1.22266 24.91471a3.73388 3.73388 0 0 0 3.54633 3.91235z" fill="rgb(220,215,201)"/><path d="m73.73449 131.8822a3.73357 3.73357 0 0 0 3.85178-3.5354l1.0661-20.24086a3.73357 3.73357 0 0 0 -3.532-3.92483c-.0244-.00136-.04881-.00236-.07322-.00317a3.73357 3.73357 0 0 0 -3.85179 3.5354l-1.0661 20.24086a3.73356 3.73356 0 0 0 3.532 3.92482c.0244.00137.04881.00236.07323.00318z" fill="rgb(220,215,201)"/><path d="m60.43942 132.99769a3.73328 3.73328 0 0 0 3.85192-3.53923l1.10515-21.40956a3.7338 3.7338 0 0 0 -3.53618-3.92131l-.06922-.00286a3.73325 3.73325 0 0 0 -3.85191 3.53923l-1.10518 21.40955a3.73379 3.73379 0 0 0 3.53618 3.92131z" fill="rgb(220,215,201)"/><path d="m47.58672 132.56814a3.7336 3.7336 0 0 0 3.84673-3.47136l1.49509-21.39671a3.73365 3.73365 0 0 0 -7.44914-.52038l-1.49508 21.39631a3.73347 3.73347 0 0 0 3.46437 3.98494c.04586.00339.09212.00567.13803.0072z" fill="rgb(220,215,201)"/>
  
  <path d="m60.098 96.49591c.082.42961.72361 3.49519 2.98583 3.99914a4.478 4.478 0 0 0 4.3626-2.19381c1.07287 1.77838 2.76464 2.77258 4.2064 2.48019 2.02509-.41069 2.70544-3.18676 2.85667-3.80388 1.37129-5.59557-5.43946-11.26347-6.231-11.90629-5.51887 3.29784-8.89059 7.70639-8.1805 11.42465z" fill="#3a301b"/><ellipse cx="93.00486" cy="72.43448" fill="#d04123" rx="17.33204" ry="18.29493" transform="matrix(.03340201 -.999442 .999442 .03340201 17.50426 162.96798)"/><ellipse cx="92.631" cy="73.0198" fill="#3a301b" rx="11.48442" ry="12.01858" transform="matrix(.03340201 -.999442 .999442 .03340201 16.55788 163.16011)"/><ellipse cx="42.75935" cy="70.75524" fill="#d04123" rx="17.33204" ry="18.29493" transform="matrix(.03340201 -.999442 .999442 .03340201 -29.38465 111.12737)"/><ellipse cx="42.38549" cy="71.34057" fill="#3a301b" rx="11.48442" ry="12.01858" transform="matrix(.03340201 -.999442 .999442 .03340201 -30.33103 111.31949)"/><path d="m95.53814 39.44924a2.9869 2.9869 0 0 0 2.1957-5.11408 43.36242 43.36242 0 0 0 -22.24884-11.63874 43.85747 43.85747 0 0 0 -29.51181 5.29217 2.98694 2.98694 0 1 0 3.02145 5.15346 37.78049 37.78049 0 0 1 25.40894-4.57049 37.32185 37.32185 0 0 1 19.13986 10.02117 2.97642 2.97642 0 0 0 1.9947.85651z" fill="#fff"/><path d="m25.91549 104.19187a2.98712 2.98712 0 0 0 2.81945-1.74869 3.44221 3.44221 0 0 1 1.49836-1.61645 3.74185 3.74185 0 0 1 2.95073-.08763 2.987 2.987 0 1 0 2.25779-5.53082 9.685 9.685 0 0 0 -7.98129.327 9.45315 9.45315 0 0 0 -4.16271 4.43325 2.98854 2.98854 0 0 0 2.61767 4.22333z" fill="#fff"/><path d="m112.01843 106.28931a2.98944 2.98944 0 0 0 3.07378-3.30038 10.44671 10.44671 0 0 0 -1.49013-4.40454 10.81016 10.81016 0 0 0 -5.78109-4.52862 2.9869 2.9869 0 1 0 -1.888 5.66759 4.81872 4.81872 0 0 1 2.57925 1.989 4.51138 4.51138 0 0 1 .63931 1.90624 2.98779 2.98779 0 0 0 2.86688 2.67071z" fill="#fff"/><path d="m188.38153 222.79308a5.38307 5.38307 0 0 1 -5.21322-6.717 24.37926 24.37926 0 0 0 -.5006-14.21182c-4.22011-11.83895-16.84733-15.54473-18.27316-15.92816a5.37846 5.37846 0 1 1 2.79429-10.38766c3.23549.87028 19.67677 6.05563 25.61119 22.70417a35.1001 35.1001 0 0 1 .78746 20.49776 5.38037 5.38037 0 0 1 -5.20596 4.04271z" fill="#574730"/><path d="m147.9452 177.84774a5.35781 5.35781 0 0 1 -2.20885-.47716l-7.77479-3.509a5.37828 5.37828 0 1 1 4.425-9.80424l7.774 3.50821a5.37928 5.37928 0 0 1 -2.2153 10.28221z" fill="#574730"/><path d="m134.65254 295.32289a5.358 5.358 0 0 1 -3.54619-1.33653c-3.19993-2.80884-10.67937-10.65271-11.02159-22.79186a30.77075 30.77075 0 0 1 3.83063-15.61584 5.37836 5.37836 0 1 1 9.43415 5.16757 20.08322 20.08322 0 0 0 -2.51187 10.14525c.22909 8.13034 5.69524 13.54517 7.3651 15.011a5.37846 5.37846 0 0 1 -3.55023 9.42041z" fill="#574730"/><g fill="rgb(221,215,202)"><path d="m178.32356 288.959a2.072 2.072 0 0 1 -.41373-.042c-17.31641-3.51751-26.99338-9.29719-29.58444-17.66833-2.44884-7.913 2.44884-15.02353 7.63459-22.55145 5.34979-7.7663 11.4131-16.56855 10.50564-27.78731-.76685-9.48263-6.42855-19.49858-14.42394-25.517-10.46605-7.87823-22.1151-6.637-34.449-5.32394-12.0244 1.28119-24.45889 2.60561-35.52411-5.26211-8.41922-5.98614-14.08618-16.06876-16.8441-29.96787a2.06861 2.06861 0 0 1 4.0581-.80523c2.5454 12.82842 7.654 22.04762 15.18352 27.40105 9.78808 6.95945 20.91068 5.77443 32.68862 4.52031 12.58843-1.341 25.60472-2.72722 37.375 6.132 8.898 6.698 15.2017 17.88085 16.05946 28.48911 1.02624 12.68661-5.48069 22.13328-11.222 30.46806-4.7999 6.96794-8.94486 12.98559-7.08955 18.981 2.0739 6.70047 10.97472 11.69269 26.45562 14.83768a2.06872 2.06872 0 0 1 -.40969 4.09607z"/><path d="m59.8254 168.26208a2.0901 2.0901 0 0 1 -.42141-.04323l-23.84476-4.93646a2.06878 2.06878 0 0 1 .83877-4.05164l23.84476 4.93647a2.06892 2.06892 0 0 1 -.41736 4.09486z"/><path d="m47.18122 187.29563a2.06882 2.06882 0 0 1 -.52686-4.069l16.70551-4.4092a2.0685 2.0685 0 1 1 1.05614 3.99992l-16.70551 4.4092a2.06573 2.06573 0 0 1 -.52928.06908z"/><path d="m60.17933 207.18572a2.06864 2.06864 0 0 1 -1.307-3.673l13.19164-10.73594a2.06866 2.06866 0 1 1 2.61167 3.20882l-13.19164 10.73589a2.0602 2.0602 0 0 1 -1.30467.46423z"/><path d="m80.81769 159.44206a2.06865 2.06865 0 0 1 -1.1923-3.76032l20.77291-14.62233a2.0687 2.0687 0 0 1 2.38136 3.38337l-20.7729 14.62232a2.06069 2.06069 0 0 1 -1.18907.37696z"/><path d="m86.19213 172.041a2.0689 2.0689 0 0 1 -.95392-3.90537l30.75209-15.94473a2.06857 2.06857 0 0 1 1.90461 3.67265l-30.7521 15.94472a2.05781 2.05781 0 0 1 -.95068.23273z"/><path d="m109.59609 177.79077a2.0689 2.0689 0 0 1 -1.03473-3.86133l15.61705-8.99944a2.06852 2.06852 0 1 1 2.06542 3.58457l-15.61706 8.99943a2.05873 2.05873 0 0 1 -1.03068.27677z"/><path d="m77.76483 213.569a2.06864 2.06864 0 0 1 -1.50624-3.4864l9.443-10.03373a2.06852 2.06852 0 0 1 3.01247 2.8355l-9.44223 10.03373a2.06485 2.06485 0 0 1 -1.507.6509z"/></g></svg></g><!--ITEM: Illustration component 4--><g transform="translate(700.0 499.0) rotate(0.0 39.0 58.5)  scale(1.4326647564469914 1.447357027103925)"><svg width="54.444" height="80.837" viewBox="0.0 0.0 54.444 80.837"><path d="m38.675 80.837a4.157 4.157 0 0 1 -4.289-4.01v-24.017h-30.096a4.405 4.405 0 0 1 -3.377-1.536 3.808 3.808 0 0 1 -.789-3.431c1.776-6.749 9.853-18.963 16.229-27.372 9.647-12.714 16.884-19.578 21.523-20.401a4.511 4.511 0 0 1 3.536.852 3.915 3.915 0 0 1 1.553 3.088v40.781h7.189a4.019 4.019 0 1 1 0 8.019h-7.189v24.017a4.158 4.158 0 0 1 -4.29 4.01zm-28.2-36.046h23.911v-32.727c-7.37 7.436-19.015 22.951-23.914 32.727z" fill="rgb(162,123,92)"/></svg></g><!--ITEM: Illustration component 5--><g transform="translate(1314.0 369.0) rotate(0.0 -146.5 205.5)  scale(-1.1594443768431655 1.1574478573260494)"><svg width="252.70725" height="355.09159" viewBox="0.0 0.0 252.70725 355.09159"><path d="m33.95341 209.83865c20.99865 25.69341 51.01268 37.543 84.30442 36.20935.03384-.00136.146-.00641.3203-.01485-1.22836 4.79177-2.2245 8.96073-2.82833 11.52487-4.07709 17.31585-2.88075 36.00461 12.22551 47.98608 22.40559 17.77074 44.4117 1.05391 68.26384-.02167 5.17545-.23338 9.21476.64973 17.28287 1.88456a36.50276 36.50276 0 0 1 9.20062 2.58792c1.56037.70595 3.30983 1.65492 3.30983 1.65492a34.58394 34.58394 0 0 1 4.13729 2.48237 36.30548 36.30548 0 0 1 10.757 11.99814c1.27937 13.51649 3.30034 28.89238 6.20593 28.961 2.15481.05091 4.2082-8.33135 4.96475-13.23933 3.6174-23.4683-8.94658-54.89083-35.32008-69.82249a69.14286 69.14286 0 0 0 -30.93542-8.71629c10.81988-13.26144 19.93656-28.54037 21.32764-45.39694 2.39813-29.06087-16.769-50.2171-43.13871-58.80626-3.33336-1.08574-13.58608-4.2082-23.16144-7.0243a19.91761 19.91761 0 0 1 -13.35275-25.16208c1.7535-5.49721 3.40538-10.6842 4.12153-13.41063 12.06748-45.9378 11.48729-100.50031-47.58821-111.70902-113.63144-21.56-92.43269 156.23314-50.09659 208.03465zm94.76587 5.3209a6.81935 6.81935 0 0 1 1.00937-1.51639 11.97687 11.97687 0 0 0 -1.00937 1.51639z" fill="#3a301b"/><ellipse cx="67.76085" cy="65.5572" fill="rgb(220,215,201)" rx="50.27356" ry="54.17073" transform="matrix(.03340201 -.999442 .999442 .03340201 -.02312 131.0905)"/><circle cx="105.24691" cy="104.82868" fill="rgb(220,215,201)" r="15.00412"/><ellipse cx="30.55352" cy="105.45186" fill="rgb(220,215,201)" rx="13.44525" ry="14.41955" transform="matrix(.03340201 -.999442 .999442 .03340201 -75.86005 132.46603)"/><path d="m84.95119 134.5967a3.73385 3.73385 0 0 0 3.853-3.5485l1.22268-24.91507a3.73383 3.73383 0 1 0 -7.45868-.366l-1.22266 24.91471a3.73388 3.73388 0 0 0 3.54633 3.91235z" fill="rgb(220,215,201)"/><path d="m73.73449 131.8822a3.73357 3.73357 0 0 0 3.85178-3.5354l1.0661-20.24086a3.73357 3.73357 0 0 0 -3.532-3.92483c-.0244-.00136-.04881-.00236-.07322-.00317a3.73357 3.73357 0 0 0 -3.85179 3.5354l-1.0661 20.24086a3.73356 3.73356 0 0 0 3.532 3.92482c.0244.00137.04881.00236.07323.00318z" fill="rgb(220,215,201)"/><path d="m60.43942 132.99769a3.73328 3.73328 0 0 0 3.85192-3.53923l1.10515-21.40956a3.7338 3.7338 0 0 0 -3.53618-3.92131l-.06922-.00286a3.73325 3.73325 0 0 0 -3.85191 3.53923l-1.10518 21.40955a3.73379 3.73379 0 0 0 3.53618 3.92131z" fill="rgb(220,215,201)"/><path d="m47.58672 132.56814a3.7336 3.7336 0 0 0 3.84673-3.47136l1.49509-21.39671a3.73365 3.73365 0 0 0 -7.44914-.52038l-1.49508 21.39631a3.73347 3.73347 0 0 0 3.46437 3.98494c.04586.00339.09212.00567.13803.0072z" fill="rgb(220,215,201)"/><path d="m60.098 96.49591c.082.42961.72361 3.49519 2.98583 3.99914a4.478 4.478 0 0 0 4.3626-2.19381c1.07287 1.77838 2.76464 2.77258 4.2064 2.48019 2.02509-.41069 2.70544-3.18676 2.85667-3.80388 1.37129-5.59557-5.43946-11.26347-6.231-11.90629-5.51887 3.29784-8.89059 7.70639-8.1805 11.42465z" fill="#3a301b"/><ellipse cx="93.00486" cy="72.43448" fill="#d04123" rx="17.33204" ry="18.29493" transform="matrix(.03340201 -.999442 .999442 .03340201 17.50426 162.96798)"/><ellipse cx="92.631" cy="73.0198" fill="#3a301b" rx="11.48442" ry="12.01858" transform="matrix(.03340201 -.999442 .999442 .03340201 16.55788 163.16011)"/><ellipse cx="42.75935" cy="70.75524" fill="#d04123" rx="17.33204" ry="18.29493" transform="matrix(.03340201 -.999442 .999442 .03340201 -29.38465 111.12737)"/><ellipse cx="42.38549" cy="71.34057" fill="#3a301b" rx="11.48442" ry="12.01858" transform="matrix(.03340201 -.999442 .999442 .03340201 -30.33103 111.31949)"/><path d="m95.53814 39.44924a2.9869 2.9869 0 0 0 2.1957-5.11408 43.36242 43.36242 0 0 0 -22.24884-11.63874 43.85747 43.85747 0 0 0 -29.51181 5.29217 2.98694 2.98694 0 1 0 3.02145 5.15346 37.78049 37.78049 0 0 1 25.40894-4.57049 37.32185 37.32185 0 0 1 19.13986 10.02117 2.97642 2.97642 0 0 0 1.9947.85651z" fill="#fff"/><path d="m25.91549 104.19187a2.98712 2.98712 0 0 0 2.81945-1.74869 3.44221 3.44221 0 0 1 1.49836-1.61645 3.74185 3.74185 0 0 1 2.95073-.08763 2.987 2.987 0 1 0 2.25779-5.53082 9.685 9.685 0 0 0 -7.98129.327 9.45315 9.45315 0 0 0 -4.16271 4.43325 2.98854 2.98854 0 0 0 2.61767 4.22333z" fill="#fff"/><path d="m112.01843 106.28931a2.98944 2.98944 0 0 0 3.07378-3.30038 10.44671 10.44671 0 0 0 -1.49013-4.40454 10.81016 10.81016 0 0 0 -5.78109-4.52862 2.9869 2.9869 0 1 0 -1.888 5.66759 4.81872 4.81872 0 0 1 2.57925 1.989 4.51138 4.51138 0 0 1 .63931 1.90624 2.98779 2.98779 0 0 0 2.86688 2.67071z" fill="#fff"/><path d="m188.38153 222.79308a5.38307 5.38307 0 0 1 -5.21322-6.717 24.37926 24.37926 0 0 0 -.5006-14.21182c-4.22011-11.83895-16.84733-15.54473-18.27316-15.92816a5.37846 5.37846 0 1 1 2.79429-10.38766c3.23549.87028 19.67677 6.05563 25.61119 22.70417a35.1001 35.1001 0 0 1 .78746 20.49776 5.38037 5.38037 0 0 1 -5.20596 4.04271z" fill="#574730"/><path d="m147.9452 177.84774a5.35781 5.35781 0 0 1 -2.20885-.47716l-7.77479-3.509a5.37828 5.37828 0 1 1 4.425-9.80424l7.774 3.50821a5.37928 5.37928 0 0 1 -2.2153 10.28221z" fill="#574730"/><path d="m134.65254 295.32289a5.358 5.358 0 0 1 -3.54619-1.33653c-3.19993-2.80884-10.67937-10.65271-11.02159-22.79186a30.77075 30.77075 0 0 1 3.83063-15.61584 5.37836 5.37836 0 1 1 9.43415 5.16757 20.08322 20.08322 0 0 0 -2.51187 10.14525c.22909 8.13034 5.69524 13.54517 7.3651 15.011a5.37846 5.37846 0 0 1 -3.55023 9.42041z" fill="#574730"/><g fill="rgb(221,215,202)"><path d="m178.32356 288.959a2.072 2.072 0 0 1 -.41373-.042c-17.31641-3.51751-26.99338-9.29719-29.58444-17.66833-2.44884-7.913 2.44884-15.02353 7.63459-22.55145 5.34979-7.7663 11.4131-16.56855 10.50564-27.78731-.76685-9.48263-6.42855-19.49858-14.42394-25.517-10.46605-7.87823-22.1151-6.637-34.449-5.32394-12.0244 1.28119-24.45889 2.60561-35.52411-5.26211-8.41922-5.98614-14.08618-16.06876-16.8441-29.96787a2.06861 2.06861 0 0 1 4.0581-.80523c2.5454 12.82842 7.654 22.04762 15.18352 27.40105 9.78808 6.95945 20.91068 5.77443 32.68862 4.52031 12.58843-1.341 25.60472-2.72722 37.375 6.132 8.898 6.698 15.2017 17.88085 16.05946 28.48911 1.02624 12.68661-5.48069 22.13328-11.222 30.46806-4.7999 6.96794-8.94486 12.98559-7.08955 18.981 2.0739 6.70047 10.97472 11.69269 26.45562 14.83768a2.06872 2.06872 0 0 1 -.40969 4.09607z"/><path d="m59.8254 168.26208a2.0901 2.0901 0 0 1 -.42141-.04323l-23.84476-4.93646a2.06878 2.06878 0 0 1 .83877-4.05164l23.84476 4.93647a2.06892 2.06892 0 0 1 -.41736 4.09486z"/><path d="m47.18122 187.29563a2.06882 2.06882 0 0 1 -.52686-4.069l16.70551-4.4092a2.0685 2.0685 0 1 1 1.05614 3.99992l-16.70551 4.4092a2.06573 2.06573 0 0 1 -.52928.06908z"/><path d="m60.17933 207.18572a2.06864 2.06864 0 0 1 -1.307-3.673l13.19164-10.73594a2.06866 2.06866 0 1 1 2.61167 3.20882l-13.19164 10.73589a2.0602 2.0602 0 0 1 -1.30467.46423z"/><path d="m80.81769 159.44206a2.06865 2.06865 0 0 1 -1.1923-3.76032l20.77291-14.62233a2.0687 2.0687 0 0 1 2.38136 3.38337l-20.7729 14.62232a2.06069 2.06069 0 0 1 -1.18907.37696z"/><path d="m86.19213 172.041a2.0689 2.0689 0 0 1 -.95392-3.90537l30.75209-15.94473a2.06857 2.06857 0 0 1 1.90461 3.67265l-30.7521 15.94472a2.05781 2.05781 0 0 1 -.95068.23273z"/><path d="m109.59609 177.79077a2.0689 2.0689 0 0 1 -1.03473-3.86133l15.61705-8.99944a2.06852 2.06852 0 1 1 2.06542 3.58457l-15.61706 8.99943a2.05873 2.05873 0 0 1 -1.03068.27677z"/><path d="m77.76483 213.569a2.06864 2.06864 0 0 1 -1.50624-3.4864l9.443-10.03373a2.06852 2.06852 0 0 1 3.01247 2.8355l-9.44223 10.03373a2.06485 2.06485 0 0 1 -1.507.6509z"/></g></svg></g><!--ITEM: Illustration component 6--><g transform="translate(786.0 498.0) rotate(0.0 43.5 59.5)  scale(1.470613093527612 1.4765000744453818)"><svg width="59.159" height="80.596" viewBox="0.0 0.0 59.159 80.596"><path d="m29.58 80.6c-16.31 0-29.58-18.082-29.58-40.3s13.27-40.3 29.58-40.3 29.579 18.078 29.579 40.3-13.269 40.3-29.579 40.3zm0-72.6c-11.899 0-21.58 14.489-21.58 32.3s9.681 32.3 21.58 32.3 21.579-14.493 21.579-32.3-9.68-32.3-21.579-32.3z" fill="rgb(162,123,92)"/></svg></g><!--ITEM: Illustration component 7--><g transform="translate(881.0 498.0) rotate(0.0 39.5 59.0)  scale(1.4510322533245168 1.4597275999851553)"><svg width="54.444" height="80.837" viewBox="0.0 0.0 54.444 80.837"><path d="m38.675 80.837a4.157 4.157 0 0 1 -4.289-4.01v-24.017h-30.096a4.405 4.405 0 0 1 -3.377-1.536 3.808 3.808 0 0 1 -.789-3.431c1.776-6.749 9.853-18.963 16.229-27.372 9.647-12.714 16.884-19.578 21.523-20.401a4.511 4.511 0 0 1 3.536.852 3.915 3.915 0 0 1 1.553 3.088v40.781h7.189a4.019 4.019 0 1 1 0 8.019h-7.189v24.017a4.158 4.158 0 0 1 -4.29 4.01zm-28.2-36.046h23.911v-32.727c-7.37 7.436-19.015 22.951-23.914 32.727z" fill="rgb(162,123,92)"/></svg></g></svg>